<svg xmlns="http://www.w3.org/2000/svg" width="11113" height="9209" fill="none" viewBox="0 0 11113 9209"><path fill="#fff" d="M3633.11 6024.17c-.84 4.22-1.42 8.49-1.73 12.81-12.81 176.27 164.56 353.65 268.25 479.34 126.31 152.72 267 294.21 423.81 415.63 154.76 119.83 325.33 220.06 507.75 291.68 138.48 54.23 286.75 118.57 438.35 116.67 97.22-1.1 169.93-72.72 237.28-139.28 110.02-108.76 231.58-379.9 229.37-506.21-1.43-79.05-111.29-29.57-375.28-74.78-147.33-25.14-285.96-88.38-417.96-158.57-175.62-93.28-331.96-218.64-466.17-365.36-88.37-96.43-178.63-194.45-242.18-309.86-56.75-103.24-107.02-258.8-49.79-372-12.81 41.58-94.22 117.78-124.25 150.35-46.79 50.59-122.35 115.73-169.15 166.32-74.45 80.78-121.4 123.94-200.28 200.14-26.72 25.77-51.06 57.23-58.02 93.12"/><path fill="#fff" fill-rule="evenodd" d="M5337.99 7436.74c-3.16 4.64-6.27 9.22-9.33 13.76q-5.055 7.11-9.96 14.22c-313.47 444.09-835.12 735.46-1322.32 948.57-263.99 115.41-536.2 210.26-811.26 294.69-137.21 42.21-275.37 87.42-414.95 120.78-121.72 29.09-351.25 81.42-473.45 35.26-31.61-12.02-62.28-29.73-82.04-57.23-35.25-48.86-27.35-116.05-14.86-171.38 9.96-45.06 21.66-89.64 31.14-134.85 24.82-119.68 44.74-240.62 60.7-362.2-224.94 43.32-280.43-295.16-282.96-445.51-2.84-172.63 283.28-271.44 334.97-287.88 3.95-233.04-2.21-465.91-15.02-696.41-24.34-439.5-51.85-887.86-112.23-1321.82-32.09-230.82-73.35-459.9-113.66-689.29-6.96-39.37-13.75-80-4.59-118.89 37.94-160.31 281.07-222.28 406.58-286.31 172.78-88.22 300.35-154.46 473.45-242.04 50.9-25.77 108.75-55.97 150.33 2.21 15.33 21.5 23.24 47.27 32.56 71.94 11.54 30.67 61.65 220.85 69.56 252.63 23.08 92.17-87.26-43.63-143.38 20.08-295.13 334.37-60.86 842.32 88.52 1187.44 344.14 795.22 888.09 1686.23 1797.67 1876.26 97.38 20.4 180.37 30.83 258.77 17.39 43.48-10.59 94.22-24.34 105.76-41.42M4175.8 7593.89c-50.11-5.69-101.33-7.75-150.81-18.5-105.75-23.08-208.35-65.77-302.4-118.57-5.8-3.16-11.49-6.43-17.08-9.8-58.91-34.36-114.6-73.3-167.08-116.83a1381 1381 0 0 1-144.01-138.18 1596.5 1596.5 0 0 1-122.99-153.66 1903 1903 0 0 1-103.54-163.63 2294 2294 0 0 1-85.99-168.21 2721 2721 0 0 1-70.03-166.79 3156 3156 0 0 1-56.12-160c-15.6-48.79-30.19-97.96-43.79-147.5-11.7-42.89-22.76-86-33.19-129.32-8.44-35.09-16.6-70.3-24.51-105.6-5.58-25.51-11.38-50.96-17.39-76.36q-.15-.315-.15-.48c-54.22-221.01-51.85 43-52.01 77.63l-3 1279.61s338.91-70.51 269.99 90.43c-43.15 100.71-213.72 382.27-335.44 578.94-17.7 28.77-16.76 63.71 4.74 90.11 9.8 12.02 22.77 21.19 36.99 27.2 24.98 10.27 56.75 11.22 83.94 13.28 14.97 1.16 29.99 1.68 45.06 1.58 40.62-.16 81.25-4.11 121.4-9.96 56.75-8.22 112.71-20.56 168.04-35.26 74.61-19.76 148.12-43.79 220.52-70.35 94.53-34.62 187.32-73.51 279-115.09 116.19-52.81 230.48-109.72 343.19-169.48 25.72-13.7 51.38-27.51 76.99-41.42 13.17-7.17 26.34-14.33 39.52-21.5 6.63-3.69 13.27-7.38 19.91-11.07 4.11-2.37 15.97-11.85 20.24-11.22" clip-rule="evenodd"/><path fill="#fff" d="M3601.34 5845.68c-27.98 26.25-73.19 22.77-104.65.79-70.34-49.16-168.03-145.92-44.73-248.84 155.39-129.63 528.45-437.92 528.45-437.92s-34.93 112.25 35.73 224.18c16.91 26.88 12.17 62.29-10.28 84.74-65.44 65.92-190.48 175.01-404.52 377.05M3468.08 5475.74c-38.1 31.31-92.63 20.08-127.41-14.22-78.09-76.52-181.95-221.18-15.65-341.8 209.61-151.93 712.14-512.39 712.14-512.39s-60.07 146.08 8.54 307.18c16.44 38.73 5.06 85.69-25.77 112.72-90.1 79.21-259.4 207.74-551.85 448.51M3334.82 5016.8c-46.32 32.88-107.81 15.33-144.96-26.88-83.15-94.38-190.16-269.08 10.44-393.34 253.08-156.83 859.63-528.35 859.63-528.35s-80.94 162.68-15.81 353.03c15.65 45.84-1.43 98.65-39.05 127.26-109.86 83.32-314.73 216.59-670.25 468.28M5591.7 3683.11c11.54 158.89 58.02 301.49 118.4 448.99 60.39 147.5 98.96 259.91 220.37 363.14 42.2 35.73 110.02 40.48 151.28 1.11 28.92-27.35 42.84-67.03 51.85-105.92 45.52-197.46 6.79-431.6-33.2-627.95-40.47-199.36-110.18-393.81-214.67-568.98-31.62-52.96-82.04-119.84-80.3-184.02 1.73-64.03 55.96-119.05 105.59-152.09 42.21-27.98 90.11-46.16 138.48-61.02 69.08-21.19 125.67-56.29 199.65-53.6 91.37 3.32 133.89 127.27 155.55 203.15 41.26 143.87 83.31 292.32 119.51 443.14 99.59 415 154.6 848.49 22.76 1256.06a996 996 0 0 1-32.56 87.11c-69.24 160.94-219.1 299.43-378.44 372.63-107.5 49.48-231.59 68.77-348.09 44.26-122.35-25.77-227-109.72-314.42-195.72-187.16-184.18-301.93-442.03-396.62-695.3-39.99-107.34-129.15-362.82-110.65-458.47 12.96-66.87 119.03-72.72 171.2-77.78 67.97-6.8 135.94-13.76 203.6-23.87 65.92-9.81 129.94-24.67 194.28-40.63 63.23-15.81 56.43 25.76 56.43 25.76M10964.9 2247.94c-24.5-11.23-51.2-19.29-75.8-27.35-74.6-24.51-152.4-38.74-229.1-55.18-.5-.1-1-.21-1.6-.31-30.7-6.64-61.6-13.18-92.4-19.61-75.4-15.49-150.9-30.62-226.4-45.37-63.7-12.49-127.6-24.82-191.3-38.26-30.2-6.32-60.5-12.81-90.4-20.87-60.24-16.12-53.1-57.54 5.2-65.77 214.8-30.03 433.1-42.05 647 .95 89 17.87 197.8 33.99 258 109.56 42.5 53.44 53.6 126.95 43.5 193.35.6-4.58-14.4-13.28-17.4-15.33a218 218 0 0 0-29.3-15.81M9286.31 4088.15c-128.99-99.76-231.43-236.82-296.87-392.23-130.1-309.07-84.57-656.56 69.08-948.09 77.61-147.34 180.84-280.93 301.93-395.08 106.07-100.07 244.86-245.36 398.2-263.7 90.1-10.59 202.18 33.83 291.65 53.28 74.7 16.23 149.4 32.41 224.2 48.53 36.8 8.07 512.8 105.14 556.4 122.69 79 31.61-192.2-38.9-474.2 31.61 47.4-15.8-63.3 15.81 0 0-82.2 27.35-176.3 73.36-245.2 126.01-291.36 222.91-479 678.38-479.47 1040.73-.16 70.35 8.37 146.71 43.15 209 35.41 63.08 106.7 94.54 177.37 83.79 63.7-9.64 116.18-56.28 151.55-107.82 59.8-87.43 91.3-199.2 92.2-304.65.1-4.21.1-8.48 0-12.8-.3-25.09-2.3-50.01-5.8-74.78-14.3-97.39-51.6-190.66-104.54-273.35-74.93-116.99-93.11-218.8-6.32-332.15 63.86-83.48 147.66-151.61 242.46-196.67 54.7-26.09 69.4-33.36 117.2-6.17 42.3 24.19 81.4 59.13 116.3 92.96 143.7 138.97 234 330.73 257.5 528.51 30.4 256.27-46 519.34-189.2 734.03-170.1 255.01-471.7 415.63-779.16 405.04-172.78-6.01-328.97-68.61-458.43-168.69M8725.13 5359.86c-1.11-79.84 6.64-159.04 24.03-235.4 136.1-595.23 1005.85-543.69 1408.64-300.22 440.7 266.39 656.5 810.86 714.2 1303.17 36.3 310.65-7.6 636.48-163.1 907.77-234.3 409.15-696.2 620.36-1150.85 471.76-441.68-144.19-791.82-520.45-1057.39-886.6-5.9-8.22-11.86-16.44-17.86-24.66-184.16-255.64-342.56-524.87-511.7-790-109.23-171.21-222.26-345.43-348.41-504.79-50.42-63.71-151.12-162.68-233-93.43-61.81 52.48-90.74 135.64-98.17 216.59-28.3 304.64 75.72 627.16 217.99 891.8 13.28 24.51 59.44 98.97 92.79 68.3 31.46-28.77 10.43-72.09-.63-106.55-64.5-200.63-110.18-261.97-130.89-470.18-2.53-25.45.79-90.74 14.23-115.72 118.56-221.17 415.27 118.1 454.79 222.12 32.4 85.53-2.53 12.96-8.85 10.28-23.72-9.65-60.07-17.55-77.3 26.24-8.54 21.34-8.38 45.37-2.06 67.51 48.37 167.42 95.95 335.31 130.57 506.21 30.83 153.04 74.77 337.38 39.36 491.84-60.54 262.91-346.03 135.48-476.76 17.7-148.12-133.43-262.88-304.17-365.32-473.81-180.37-298.64-294.81-636.96-333.7-983.66-25.29-224.81-28.61-455.94 15.65-678.69 38.57-194.14 123.14-462.9 314.89-556.97 422.54-207.1 884.45 464.16 1049.01 773.24 261.46 490.88 519.13 999.78 916.54 1397.39 200.75 200.62 479.6 387.81 758.45 268.92 193.32-82.37 299.72-255.01 315.52-439.19 16.8-198.4 2.5-380.05-90.6-559.65-72.5-139.75-215.43-269.23-382.05-265.12-143.85 3.63-236.32 126-261.3 258.16-9.17 48.38-10.12 98.18-3.48 146.87 30.2 218.49 205.98 403.46 397.41 505.43 11.23 6.01 122.35 17.55-4.9 13.12-78.72-2.68-145.11-8.22-200.76-18.65-171.99-32.41-341.45-89.33-488.62-185.13-281.85-183.55-450.99-535.46-456.37-876"/><path fill="#fff" fill-rule="evenodd" d="M5616.21 5385.16c283.11 213.11 648.75 334.52 999.84 239.51 0 .16-1.11 4.58-1.11 4.42-19.75 64.98-71.45 119.52-117.45 167.58-184 192.56-444.67 306.87-704.55 351.61-322.48 55.65-668.2-76.05-887.61-314.93-228.58-249-363.58-576.57-461.12-895.76-93.74-306.39-154.28-623.05-194.27-940.82-3.01-24.03-35.89-432.54-39.68-432.86.1 0 .26.05.47.16-2.21-3.9-4.53-7.43-6.95-10.59-29.41-38.74-91.21-29.09-132.63-22.61-19.44 3.16-49.64 3.16-67.34 11.7-17.86 8.69-13.6 31.62-15.49 48.22-5.22 46.64-4.75 103.55-25.77 147.03-6.01 12.22-12.65 21.97-19.92 29.24-77.46 79.37-188.27 131.06-287.7 180.39-56.59 27.98-155.23 83.79-217.04 40.47-35.41-24.98-9.64-83.32-.79-115.88 22.76-84.74 45.84-172.01 64.65-258.8 19.13-88.06 40.15-172.8 43-263.55 2.84-87.9-4.74-177.06-12.01-263.85a4744 4744 0 0 0-41.11-336.27c-51.05-324.09-133.26-642.97-235.69-954.41l.79-12.49c-54.06-161.79-100.33-284.68-138.79-368.68 17.23-132.64 149.86-158.41 267.15-174.54 110.5-15.33 232.53-27.98 325.01 34.63 68.76 46.48 106.39 125.68 143.85 199.83 194.12 384.64 464.12 730.71 789.76 1012.91 250.71 217.22 532.88 393.49 764.31 633.16 62.91 65.14 127.88 147.03 73.19 244.42-19.76 35.41-51.54 62.29-87.58 81.1-127.88 66.87-270.79 83.95-411.63 95.01-63.39 5.06-197.76 28.3-296.56 75.89 15.81 95.49 36.68 190.03 61.65 283.3 66.87 249.79 162.03 492.15 273.32 725.18 67.97 142.13 145.27 274.93 236.17 396.98 100.85 135.32 218.62 257.06 359.63 363.3M4234.6 3327.72c159.98 11.22 341.61 38.73 488.46-44.11 32.25-18.18 62.92-43.47 74.93-78.57 17.87-52.01-10.59-111.77-36.67-153.83a499 499 0 0 0-58.81-77.46c-88.36-94.23-200.6-154.46-306.19-224.34-155.08-102.76-295.29-226.23-434.4-349.7-14.39-12.65-23.4-15.81-28.61-12.97-13.13 6.96-4.59 49.33-1.27 70.83 6.01 40.68 11.59 81.47 16.76 122.36 29.08 224.34 47.89 450.1 56.59 676.17 2.05 55.65 11.7 46.8 92.63 57.55 45.42 6.11 90.95 10.8 136.58 14.07" clip-rule="evenodd"/><path fill="#fff" d="M10404.1 1017.17c-155.9 74.31-713.74-264.329-946.91-263.064l-25.29-13.596s-268.73 0-300.35 47.428-884.92 921.532-877.18 2760.952c-24.5 10.44-40.94-8.53-53.58-25.61-238.23-320.3-460.49-658.14-759.25-922.64-171.2-151.77-370.54-277.29-588.53-349.07-92.79-30.51-644.96-162.04-572.08 52.33 2.52 7.06 5.74 13.81 9.64 20.24 153.02 258.8 264.46 502.1 332.91 730.87 82.68 364.09 230.16 1119.62 139.74 1550.43 0 0 209.93-527.88 648.6-455.63 260.19 43 474.55 183.07 646.85 375.16-69.08-84.9-118.56-221.97-170.09-312.71-69.98-122.9-139.9-245.79-209.77-368.68-126.94-223.23-253.87-446.14-384.29-667.31 254.19 223.38 442.94 498.47 627.73 781.45 190.01 290.58 337.97 590.64 488.31 900.98 48.05 99.29 96.16 198.57 144.32 297.85 0 0 78.72-571.51 631.37-603.13 173.09-9.8 347.92-28.14 516.44-70.98 60.38-15.34 141.48-28.78 190.16-69.09-64.49 50.43-169.77 34.47-236.8 18.02-179.26-43.79-354.57-117.3-505.53-222.12-184.95-128.21-285.96-287.41-360.58-512.07-161.4-484.71 79.36-1014.64 371.8-1424.26 72.56-101.66 171.52-228.29 265.1-335.95a4145 4145 0 0 1 40.15-45.54c130.42-146.55 268.89-285.83 412.43-419.42a8171 8171 0 0 1 255.28-227.5c46.4-39.73 93.2-78.94 140.4-117.62 39.8-32.88 93.6-96.44 141.6-114.46z"/><path fill="#fff" fill-rule="evenodd" d="M2952.27 3895.75c-149.86 96.44-308.09 179.44-469.65 254.69-215.14 100.39-435.82 186.71-664.56 251.37-76.19 21.66-160.77 21.66-187.95-67.98-9.65-31.46-9.02-65.14-5.85-98.02 9.01-92.48 37.94-181.49 71.13-267.81 67.5-174.85 141.8-339.59 153.5-529.46 4.58-71.93-20.55-341.32-154.13-317.45 131.2-89.16 333.07-40 443.88 51.54 110.82 91.69 161.72 249.79 125.36 388.91-11.86 44.9-33.99 88.22-33.99 135.8.16 71.78 54.22 113.67 123.94 109.09 158.71-10.44 320.26-130.27 404.36-261.49 38.25-59.44 62.44-133.59 53.59-204.89-16.28-131.69-128.05-230.34-242.34-297.85-258.61-153.03-571.29-212.79-868.32-165.84-55.96 8.85-114.76 23.24-154.28 63.87-54.86 56.6-55.49 144.66-54.86 223.55 3.48 415.47-20.86 870.62-62.75 1300.16-16.13 165.05-10.6 363.14 65.76 513.49 19.6 38.89 45.84 76.04 83.15 98.18 108.75 64.66 280.11-28.3 334.02-129.17 10.11-18.81 18.65-32.72 26.87-50.11 28.14-89.48 41.89-159.2 41.89-159.2s5.53 44.42 6.32 111.3c14.7 443.45-115.39 559.02-115.39 559.02-418.44 495.78-966.021 176.9-1108.291-8.07-82.991-107.97-109.865-198.56-116.978-258.64-3.794-15.7-6.113-32.2-6.956-49.48-1.58-38.42.316-74.62 8.853-111.14 308.885-1308.07 187.006-2443.66-224.946-3722.96-41.258-127.74-86.468-260.38-67.183-393.337 19.286-132.799 317.737-257.535 451.788-251.053 64.496 3.162 123.459 36.519 175.783 74.146 151.6 109.243 268.42 258.799 385.87 404.244 296.71 367.41 620.77 729.45 1040.47 946.2 104.33 54.06 214.35 98.8 309.83 167.26 95.48 68.61 177.37 166.63 194.12 282.99 12.02 83.31-9.8 170.26 12.49 251.52 51.06 186.4 295.45 245.37 397.09 409.94 186.85 301.96-143.53 599.81-371.64 746.68m-720.04-1511.69c-73.35-121.58-223.53-180.39-338.13-254.54A2972.6 2972.6 0 0 1 1514.71 1838c-21.82-19.76-107.18-104.98-127.57-126.16-56.12-58.18-168.2-197.46-134.21-151.61 22.61 30.51 91.53 322.51 103.86 366.46 47.26 168.53 77.14 340.69 95.95 514.44 13.75 125.68 9.33 225.12 158.4 240.3 159.97 16.28 323.58 1.9 478.5-41.1 78.09-21.82 163.45-58.5 170.25-154.15 2.53-35.88-8.85-71.3-27.66-102.12M7719.28 8080.5c-21.5 14.86-49.01 17.87-73.19 7.91l-41.73-17.24c-240.28-116.67-443.73-297.53-616.35-508.27-48.85-8.06-118.4-9.8-167.09-9.8-4.85.42-9.54.74-14.07.95-169.46 5.85-360.42-12.49-505.69 92.96-78.25 56.75-129.47 142.28-178.63 225.44-53.11 89.96-70.34 158.25-82.36 257.22-3.16 26.4 4.59 28.93-13.91 53.12-37.62 49.96-145.11 68.29-200.6 83.16-219.89 58.96-2032.1 530.72-2158.56 547.63-94.21 12.65-329.59 55.34-424.12 65.61l-167.41 11.07c54.54-9.96 113.5-23.87 125.52-25.93 221.31-39.36 439.14-104.81 647.8-187.66 676.42-268.12 1468.55-760.43 1854.1-1404.66 95.8-159.99 178.63-327.26 218.94-510.33 41.89-190.19 52.64-274.61 76.04-467.48 2.05-16.13 4.1-32.73 12.64-46.64 2.64-4.01 5.48-7.48 8.54-10.44l-3.64-5.69s567.19-210.58 675.94-417.05c0 0-3 188.77 130.89 488.99l-2.84.79a865 865 0 0 0 20.07 40.94c178.95 338.32 394.41 651.98 658.24 928.17 117.3 122.68 144.49 161.89 286.91 252.8 104.18 66.55 437.72 188.6 548.53 132.32 160.77-81.58-457.32 312.55-613.97 422.11m-923.18-780.67c-109.23-167.58-203.6-343.85-285.01-515.07-9.96-20.87-20.39-42.68-40.63-54.7-11.54-6.8-25.77-8.85-38.25-4.27-18.34 6.8-21.5 22.61-24.19 37.63a5428 5428 0 0 0-64.65 461c-.79 8.38-1.43 17.55 3.47 24.35 5.69 8.06 16.76 9.8 26.72 10.75 28.77 2.84 56.64 5.8 83.62 8.85 98.33 8.22 242.97 22.14 338.92 31.46" clip-rule="evenodd"/><path fill="#fff" d="M6444.06 7203.87c53.85.42 107.39 4.79 160.61 13.12 12.65 2.06 25.45-3.32 29.09-16.6 3.16-11.22-3.8-27.19-16.44-29.09-57.44-9.27-115.19-14.23-173.26-14.86-12.8-.16-23.71 10.91-23.71 23.71 0 12.97 10.75 23.56 23.71 23.72M5780.29 6360.75c-167.4 10.12-335.76-15.96-495.42-66.08-161.71-50.91-318.21-127.74-451.63-233.03-63.23-49.64-121.72-106.08-171.35-169.32-60.86-77.78-110.5-165.05-152.39-254.37-72.72-155.41-118.56-321.56-159.18-487.72-39.05-159.36-65.76-321.41-93.74-482.98-5.06-30.04-50.75-17.23-45.69 12.65 53.91 312.23 107.65 631.74 232.38 925.01 73.5 172.95 174.36 334.68 317.42 458.31 131.68 113.51 287.07 197.78 450.36 256.43 181 65.13 376.7 100.23 569.24 88.53 30.35-1.89 30.51-49.32 0-47.43M8067.53 3161.25c27.97 1.58 56.59-2.53 82.99-12.02 5.85-2.21 10.9-5.37 14.07-10.91 3-5.06 4.26-12.64 2.37-18.34-3.64-11.38-16.6-21.02-29.09-16.6a207.5 207.5 0 0 1-39.83 9.96c2.1-.31 4.21-.63 6.32-.94-12.23 1.68-24.5 2.16-36.83 1.42-12.34-.63-24.19 11.38-23.72 23.71.64 13.44 10.44 23.08 23.72 23.72M7981.37 3074.29c67.98 3.64 136.74-6.48 200.76-29.4 12.02-4.43 20.08-16.28 16.6-29.25-3.16-11.7-17.07-20.87-29.24-16.6-60.55 21.82-123.78 31.3-188.12 27.83-12.8-.64-23.71 11.38-23.71 23.71 0 13.44 10.91 23.08 23.71 23.71M6002.08 5340.41c216.09-11.54 422.85-121.25 556.27-291.52 37.63-48.06 69.4-100.07 93.9-156.04 12.17-27.67-28.77-51.86-40.94-24.03-81.73 186.39-245.65 331.52-439.46 393.02-55.17 17.39-112.08 28.14-169.77 31.15-30.36 1.58-30.67 49.01 0 47.42M6203.62 5419.3c192.7-3.63 376.55-119.83 460.8-293.42 13.28-27.35-27.66-51.54-40.94-24.03-76.98 158.89-242.81 266.7-419.86 270.02-30.5.64-30.5 48.07 0 47.43M6387.94 5511.79c128.84-4.43 251.19-83.16 306.04-200.46 5.38-11.54 3.16-25.46-8.53-32.41-10.28-6.01-27.03-3.16-32.41 8.53-47.74 102.13-151.91 173.12-265.1 176.91-30.51 1.11-30.66 48.54 0 47.43M1665.99 4791.35c-39.84-65.76-13.6-160.62 55.96-196.66 27.03-14.08 3.16-55.02-24.03-40.95-91.21 47.27-125.99 174.06-72.87 261.64 15.96 25.93 56.91 2.22 40.94-24.03M1800.36 4829.77c-40-65.77-13.76-160.78 55.8-196.67 27.03-14.07 3.16-55.02-24.03-40.94-91.05 47.11-125.83 174.06-72.72 261.48 15.81 26.09 56.75 2.22 40.95-23.87M3416.86 4209.25c50.43 2.69 100.07-10.12 147.81-24.5a1126 1126 0 0 0 134.21-50.91c88.04-39.68 170.4-90.59 247.39-148.77 24.03-18.18.31-59.44-24.03-40.94-73.19 55.33-151.44 104.18-234.75 143.07a1030 1030 0 0 1-125.51 48.7c-46.95 14.86-95.48 28.61-145.12 25.92-30.51-1.58-30.35 45.85 0 47.43M2861.85 8012.36c279.8-12.33 554.38-96.28 792.92-243.15 25.93-15.96 2.06-57.07-24.03-40.94-231.42 142.44-497.31 224.65-768.89 236.67-30.35 1.42-30.51 48.85 0 47.42M4126.32 3265.11c177.52 23.4 364.84 43.64 530.51-40.31 27.19-13.75 3.32-54.7-23.87-40.95-156.97 79.52-339.08 55.81-506.64 33.84-12.81-1.59-23.55 12.17-23.71 23.71-.16 14.23 11.06 22.13 23.71 23.71M9987.7 3349.38c3.79 67.19 1.9 134.54-22.13 198.25-20.87 55.81-57.22 104.34-102.75 142.44-23.4 19.6 10.27 52.96 33.51 33.52 50.59-42.37 88.84-96.76 113.07-157.94 27-68.77 29.8-143.39 25.7-216.27-1.6-30.36-48.98-30.51-47.4 0M2520.24 3161.09c75.09 26.08 135.16 89.8 156.03 166.47 22.13 80.63-1.74 169.95-58.33 230.82-20.87 22.29 12.64 55.81 33.51 33.51 68.13-73.19 97.22-179.75 70.66-276.82-25.61-93.27-98.48-168.21-189.22-199.67-28.93-10.12-41.26 35.73-12.65 45.69M1534.63 2504.68c16.44 123.95 170.25 132.8 266.99 118.1 12.65-1.9 19.6-17.87 16.44-29.09-3.64-13.6-16.44-18.5-29.09-16.6-43.47 6.64-90.89 6.95-133.41-5.06-31.78-8.85-68.77-31.15-73.51-67.35-1.74-12.65-9.64-23.71-23.71-23.71-11.54 0-25.45 11.06-23.71 23.71M9425.42 6637.73c102.27 55.81 217.99 102.45 336.7 93.6 100.86-7.59 198.71-53.12 255.58-138.97 17-25.45-24.15-49.32-40.91-23.87-49.47 74.46-139.26 112.4-226.36 116.04-106.87 4.43-208.98-37.47-300.99-87.74-26.87-14.7-50.74 26.24-24.02 40.94M5779.98 4136.84c44.57 114.15 91.52 270.03 235.37 285.05 12.81 1.42 23.72-11.86 23.72-23.72 0-13.91-10.91-22.29-23.72-23.71-50.42-5.22-91.21-43.95-116.97-85.05-32.09-50.75-50.91-109.41-72.56-165.21-4.74-11.86-15.97-20.08-29.25-16.44-11.38 3.16-21.18 17.07-16.59 29.08M8150.99 2835.73c-2.37-225.44 35.41-449.62 94.37-666.52 63.39-232.72 151.28-458.32 255.14-675.7 102.91-215.64 221.63-424.01 354.41-622.731 116.66-174.694 244.23-343.064 387.14-497.206 106.38-114.776 222.41-227.655 357.73-307.809a813 813 0 0 1 39.83-21.975c27.19-13.912 3.32-54.859-23.87-40.946-136.26 70.035-253.4 177.856-359.47 286.782-145.11 149.241-274.42 313.975-392.98 484.717-136.74 196.827-259.25 403.928-366.27 618.308-109.39 219.12-203.44 446.61-273.63 681.23-66.23 221.17-112.08 450.41-119.03 681.54-.85 26.77-1.11 53.54-.79 80.31.31 30.51 47.74 30.51 47.42 0M9793.27 1874.83c164.87-147.02 346.53-274.13 540.93-379.11 26.9-14.54 2.9-55.49-24-40.94-197.8 106.87-382.57 236.82-550.45 386.54-22.76 20.23 10.75 53.75 33.52 33.51M10200 1772.55c180.7-110.14 365.8-212.48 555.2-307.02 27.3-13.6 3.3-54.54-23.9-40.95a7497 7497 0 0 0-555.3 307.02c-26.1 15.97-2.2 56.92 24 40.95M7950.71 2878.57c-148.28-224.96-322.64-434.6-537-599.65-181.15-139.44-388.39-240.62-609.07-299.9-113.98-30.67-231.43-53.44-349.51-59.29-110.66-5.53-236.8-3.32-336.71 50.59-47.42 25.61-85.99 67.51-97.38 121.26-15.8 73.83 13.28 150.03 47.43 214.38a829 829 0 0 0 40.15 67.03c16.6 25.45 57.7 1.58 40.94-24.03-41.73-63.56-86.31-140.23-85.52-217.38.16-23.71 5.38-45.37 17.07-65.14 10.28-17.54 26.72-33.35 43.32-44.26 43.15-28.77 94.37-41.26 147.48-49.01 49.32-7.27 107.66-8.7 160.61-6.96 37.41 1.16 74.77 4.01 112.08 8.54 2.21.21 4.37.47 6.48.79 6.64.79-6.16-.95-.63-.16 5.48.85 10.96 1.69 16.44 2.53a2075 2075 0 0 1 162.34 31.15c213.57 49.8 415.75 137.22 595.49 263.07 206.45 144.49 377.96 334.21 522.92 539.25 21.18 30.04 41.89 60.4 62.12 91.07 16.76 25.45 57.7 1.74 40.95-23.88M5598.66 3481.39c85.68-35.26 167.88-98.5 162.66-200.62-5.06-102.45-77.14-194.62-141.48-268.92-94.69-109.25-205.5-204.73-316.94-296.43-122.36-100.39-248.5-196.04-374.33-292-103.7-79.2-208.83-157.78-305.73-245.36-55.33-49.96-104.33-106.24-154.44-161.26-82.99-91.06-164.88-183.54-237.59-282.99-71.29-97.54-135-202.2-178.63-315.23-19.13-49.49-29.56-102.13-52.32-150.19-65.76-139.28-205.98-216.12-357.42-219.6-123.14-2.84-247.71-3.95-370.38 7.12-63.7 5.85-127.41 15.33-189.22 31.77-59.43 15.97-118.55 38.26-165.5 79.21-94.53 82.21-98.01 219.75-65.45 331.84 18.81 64.98 47.9 126.79 74.93 188.92 29.19 67.24 58.38 134.43 87.58 201.57 28.77 66.08 57.48 132.11 86.15 198.09 12.17 27.99 52.96 3.8 40.94-23.87-56.91-130.9-113.82-261.75-170.72-392.55-48.22-111.14-112.71-235.08-84.1-359.82 13.12-56.91 45.53-103.08 95.79-133.27 52.17-31.3 113.66-46.48 172.78-58.02 121.09-23.72 245.34-24.82 368.33-24.19 97.69.47 197.91-5.85 287.38 40.79 54.7 28.45 99.75 71.77 131.37 124.73a342 342 0 0 1 15.65 29.25c5.53 11.38 4.74 9.64 8.69 19.92 3.95 10.43 6.8 20.87 9.8 31.46 31.93 112.09 83.31 218.17 145.43 316.51 63.55 100.54 138.16 193.82 216.1 283.62 67.02 77.3 134.99 155.24 207.24 227.81 81.41 82.05 174.99 152.56 266.2 223.07 118.24 91.38 237.91 180.86 355.2 273.66 115.56 91.22 230.01 185.13 334.81 288.84 43.16 42.68 84.89 87.27 122.04 135.33 29.08 37.78 59.59 84.1 74.93 125.05 3.79 9.7 7.01 19.55 9.64 29.56a149 149 0 0 1 3.16 13.92c.42 2.1.84 4.21 1.27 6.32 1.1 6.32.15.47.63 4.11.95 9.06 1.26 18.18.95 27.35-.16 2.21-1.27 13.76-.64 8.38q-.945 6.795-2.52 13.44c-8.22 34.15-30.99 61.65-61.02 82.52-19.76 13.92-41.58 25.3-63.87 34.47-27.82 11.38-15.65 57.23 12.65 45.69M5718.01 2855.18c137.68-139.76 324.06-227.98 519.76-244.1 30.19-2.53 30.35-49.96 0-47.43-208.35 17.23-406.42 108.93-553.27 258.01-21.5 21.82 12.01 55.33 33.51 33.52M5628.22 2773.76c80.46-105.13 199.18-186.08 332.44-201.73 12.8-1.58 23.55-9.96 23.71-23.71.16-11.7-10.91-25.3-23.71-23.72-151.91 17.87-281.54 105.29-373.38 225.13-7.75 10.27-1.43 26.56 8.53 32.56 12.18 7.28 24.66 1.59 32.41-8.53M9529.91 645.021c57.54-26.718 122.19-15.81 180.05 3.478 60.54 20.236 117.61 50.59 174.99 78.415 114.29 55.649 230.35 112.563 354.75 142.6 68.4 16.442 139.1 24.189 209.4 19.446 30.4-2.213 30.5-49.641 0-47.428-131.2 9.011-258.1-28.615-377.6-79.68-60.4-25.769-119.37-54.858-178.49-83.631-58.8-28.616-117.61-59.127-180.36-78.731-68.45-21.185-140.38-26.402-206.61 4.584-27.67 12.806-3.64 53.752 23.87 40.947"/><path fill="#fff" d="M2558.97 1739.98c-313.62-101.02-565.76-331.68-772.37-580.84-87.89-105.92-168.51-217.692-245.81-331.52-89.63-132.325-169.62-280.933-293.23-385.275-276.167-232.873-658.084-112.405-933.614 54.7-124.566 75.569-226.21 173.746-278.06 312.394C11.86 873.467 5.378 937.653 1.427 1005c-16.599 277.46 115.238 536.26 214.67 787.78 63.231 159.68 120.613 322.04 158.236 489.94 44.578 199.99 55.644 406.93 69.871 610.71 29.56 421.33 36.041 844.86-2.846 1265.71-20.234 220.7-61.966 436.81-93.266 655.77-27.189 189.55-37.623 388.75 27.506 572.3 107.177 302.12 398.357 503.53 707.873 552.22 172.62 27.2 349.2 24.67 516.6-29.24 84.73-27.2 166.62-65.77 242.02-113.04 33.51-21.03 61.33-50.27 90.58-76.68 28.45-25.82 56.91-51.59 85.36-77.3-7.69 2-15.39 4.05-23.08 6.16.42.11.79.21 1.11.32-5.8-7.59-11.6-15.23-17.39-22.93 35.25 351.6 64.49 704.31 79.67 1057.34 3.48 79.2 5.53 158.41 9.48 237.61 4.59 90.91 9.65 183.71-8.37 273.5-27.67 138.49-142.43 210.27-218.63 319.83-75.4 108.45-84.25 247.26-49 371.99 18.65 66.09 49.48 128.53 85.99 186.4 42.37 67.5 100.7 124.42 141.8 192.24 81.73 135.17-10.43 284.41-32.56 423.06-16.13 99.92-23.56 229.87 45.21 312.87 89.94 108.77 242.01 107.5 369.9 96.75 181.95-15.02 361.52-52.8 538.26-98.02-7.7-2.11-15.39-4.16-23.08-6.16.21.21.42.37.63.47-2-7.69-4.06-15.39-6.17-23.08-13.12 60.07-39.99 177.54 17.87 222.12 40.15 31.15 115.39 7.12 159.66-4.11 80.62-20.39 164.4-31.62 246.28-47.11 405.16-76.52 806.99-169.64 1206.93-270.34 396.46-99.76 791.18-206.47 1186.69-309.71 102.44-26.77 204.92-53.22 307.46-79.36 68.14-17.39 170.25-24.03 214.2-87.59 40.94-59.44 19.6-135.17 18.97-201.72-.79-83.32 26.24-164.26 71.14-233.82 82.35-127.27 214.19-197.15 359.94-209.64 63.55-5.37 128.52-2.69 189.69 15.81 83.78 25.3 153.02 89.64 216.57 147.19 184.64 167.26 485.46 496.1 751.35 293.26 153.96-117.46 315.05-227.5 475.02-336.58 65.76-44.9 133.1-86.79 200.44-129 36.36-22.77 92.8-51.54 105.44-96.6 14.7-52.17-40.78-77.78-82.04-87.58-94.21-22.61-187.17-48.07-280.43-74.31-95.48-26.72-194.6-47.9-288.34-80.31-39.04-13.6-79.19-39.21-40.94-81.74 12.96-14.38 50.43-19.6 68.77-24.02 35.41-8.23 69.87-16.29 101.01-36.05 62.44-39.68 94.53-106.24 104.65-178.01 12.48-87.75 1.89-180.23-10.44-267.5-5.69-41.1-12.49-81.89-23.55-121.89-9.01-32.41-31.77-85.37-17.39-118.1 21.97-50.11 85.84 77.31 98.01 98.18a4178 4178 0 0 0 71.77 118.25c48.68 77.31 100.22 152.72 155.7 225.29 384.13 502.74 1059.13 899.24 1707.37 715.37 558.8-158.41 864.3-703.51 904.1-1253.05 37-510.96-120.3-1049.59-434.9-1454.62-146.2-188.29-341.1-368.2-566.5-455.47-7.8-3.16-67.5-17.87-65.2-30.51.5-2.38 13.9-5.54 15.8-6.8 17.7-12.81 45.4-19.92 65.6-28.46 71.7-30.04 142.3-60.87 210.3-98.65 123.4-68.77 238.4-155.09 333.7-259.75 145.4-159.99 238.4-358.24 278.8-569.93 39.9-208.68 49-435.86.4-642.81-37.4-158.88-109.8-306.86-217.7-429.7-20.1-23.08-53.6 10.59-33.5 33.52 204.2 232.55 250.4 536.89 229 835.84-13.1 184.02-53.6 366.46-141.8 529.77-134.2 248.05-363.1 423.06-618.7 533.89-41.7 18.18-233.15 67.82-159.3 144.18 19.6 20.08 56.7 22.45 81.7 32.09 34.5 12.97 67.2 30.04 99.4 47.75 51.8 28.56 101.4 60.39 148.9 95.49 409.6 302.27 647.5 812.6 713.3 1307.91 67.3 506.53-48.4 1071.56-456.5 1411.78-552.7 460.69-1340.08 227.02-1820-222.28-131.68-123.47-244.55-265.28-344.3-415.47-49.16-74.31-95.47-150.51-139.74-227.66-25.6-44.58-55.48-129.32-123.14-98.81-49.79 22.61-45.68 87.59-37.15 132.17 16.13 83.32 39.05 162.05 47.11 247.42 8.85 93.43 22.61 211.05-37.94 290.57-54.54 71.78-141.64 55.97-211.51 99.13-51.06 31.46-60.38 88.69-16.28 131.22 56.43 54.38 163.3 63.55 235.54 83.63 97.69 27.3 195.43 54.65 293.23 82.05 38.26 10.75 77.62 17.39 115.87 27.98 22.61 6.17 45.06 14.07 33.67 39.37-5.69 12.8-26.55 24.03-37.78 31.93-63.07 44.11-131.36 81.1-195.38 124.11-92 61.81-182.74 125.84-273.16 190.03a29452 29452 0 0 0-219.89 157.77q-19.44 13.92-38.73 28.14c-87.26 65.46-190.32 52.65-285.33 9.65-161.24-72.88-278.06-201.57-407.84-317.3-56.43-50.27-117.93-104.97-188.27-134.69-60.39-25.46-127.41-33.68-192.54-32.89-111.6 1.58-220.36 27.2-312.05 93.44-111.6 80.78-191.75 205.52-208.98 343.06-8.53 68.14 29.56 184.18-19.76 239.04-29.08 32.41-90.26 38.1-130.25 48.22-51.64 13.07-103.28 26.24-154.92 39.52-196.02 50.43-391.56 101.97-587.26 153.67-382.86 101.18-765.73 202.36-1150.97 294.21-193.64 46.17-387.92 89.96-582.83 130.27-99.06 20.55-198.28 40.16-297.66 58.81-76.35 14.23-155.24 23.56-230.17 44.43-27.03 7.43-85.2 25.77-109.86 12.33-18.49-10.12-17.55-43.48-17.7-61.82-.32-37.46 5.05-74.93 13.12-111.45 1.74-7.91.31-17.39-6.17-23.08-13.91-11.86-25.92-5.7-42.52-1.74-38.57 9.01-76.83 18.97-115.4 27.82-79.04 17.87-158.39 33.52-238.38 45.53-134.68 20.55-316.79 57.86-440.09-20.87-109.23-69.87-101.01-223.86-77.78-336.58 25.46-123 93.59-251.84 49.64-379.11-19.6-56.91-61.33-101.18-97.69-147.66-53.59-67.98-102.59-141.49-134.21-222.44-55.48-141.97-48.69-297.85 50.59-418 74.61-90.27 166.45-161.73 195.38-280.61 36.67-151.78 13.12-315.09 7.75-469.07-13.28-377.84-44.9-755.53-82.68-1131.64-1.1-11.38-6.8-18.65-17.39-22.76-.31-.11-.68-.27-1.1-.48-7.91-3-17.23.79-23.08 6.17-55.65 50.27-109.87 113.19-174.52 151.45-157.29 93.28-327.86 147.66-511.54 148.61-336.235 1.58-682.268-142.13-841.927-453.73-87.892-171.37-92.634-368.83-71.926-556.33 22.289-202.52 66.867-402.19 90.105-604.71 46.158-401.24 50.111-805.81 28.77-1208.79-19.127-365.04-40.626-730.23-157.762-1078.99-90.263-268.92-234.904-527.24-286.596-807.86-34.461-187.34-9.485-397.133 124.408-541.631 107.335-116.041 273.633-200.464 422.701-249.157 176.573-57.704 376.542-78.256 542.997 21.185 147.65 88.058 233.48 247.575 326.59 386.066 67.03 99.757 135.95 198.247 209.93 293.107 181.47 233.19 395.67 454.2 659.98 592.85 64.49 33.73 131.41 61.71 200.75 83.95 29.09 9.33 41.58-36.36 12.49-45.69"/></svg>